<svg width="20" height="20" viewBox="0 0 20 20" fill="none" xmlns="http://www.w3.org/2000/svg">
<path d="M17.9643 14.2992C17.12 13.43 16.0714 12.3484 16.0714 8.125C16.0714 5.02367 13.8769 2.45043 10.9994 1.95977C11.1396 1.75126 11.2146 1.50361 11.2143 1.25C11.2143 0.559648 10.6706 0 10 0C9.32937 0 8.78571 0.559648 8.78571 1.25C8.78571 1.51367 8.86521 1.75812 9.0006 1.95977C6.12305 2.45043 3.92857 5.02367 3.92857 8.125C3.92857 12.3484 2.87961 13.43 2.03531 14.2992C0.891259 15.4769 1.70206 17.5 3.32325 17.5H7.57143C7.57143 18.8807 8.65874 20 10 20C11.3413 20 12.4286 18.8807 12.4286 17.5H16.6764C18.2944 17.5 19.1107 15.4793 17.9643 14.2992ZM10 18.4375C10.0805 18.4375 10.1577 18.4704 10.2147 18.529C10.2716 18.5876 10.3036 18.6671 10.3036 18.75C10.3036 18.8329 10.2716 18.9124 10.2147 18.971C10.1577 19.0296 10.0805 19.0625 10 19.0625C9.16305 19.0625 8.48214 18.3616 8.48214 17.5H9.08928C9.08928 18.017 9.49782 18.4375 10 18.4375Z" fill="white"/>
</svg>
