<svg width="20" height="20" viewBox="0 0 20 20" fill="none" xmlns="http://www.w3.org/2000/svg">
<path d="M16.8263 19.6329L19.6329 16.8263C20.1224 16.3369 20.1224 15.5506 19.6329 15.0612L14.5717 10L19.6329 4.93882C20.1224 4.44936 20.1224 3.66311 19.6329 3.17365L16.8263 0.367092C16.3369 -0.122364 15.5506 -0.122364 15.0612 0.367092L10 5.42827L4.93882 0.367092C4.44936 -0.122364 3.66311 -0.122364 3.17365 0.367092L0.367092 3.17365C-0.122364 3.66311 -0.122364 4.44936 0.367092 4.93882L5.42827 10L0.367092 15.0612C-0.122364 15.5506 -0.122364 16.3369 0.367092 16.8263L3.17365 19.6329C3.66311 20.1224 4.44936 20.1224 4.93882 19.6329L10 14.5717L15.0612 19.6329C15.5454 20.1172 16.3369 20.1172 16.8263 19.6329Z" fill="#333333"/>
</svg>
