<svg width="20" height="13" viewBox="0 0 20 13" fill="none" xmlns="http://www.w3.org/2000/svg">
<circle cx="10" cy="6.5" r="3" fill="#777777"/>
<path d="M19.7692 5.63914C17.8114 2.25907 14.1601 0 10 0C5.8382 0 2.18765 2.26066 0.23078 5.63914C0.079686 5.89999 0 6.19724 0 6.50002C0 6.80279 0.079686 7.10005 0.23078 7.3609C2.18859 10.7409 5.83994 13 10 13C14.1618 13 17.8123 10.7393 19.7692 7.36086C19.9203 7.10002 20 6.80277 20 6.5C20 6.19723 19.9203 5.89998 19.7692 5.63914ZM10 11.3043C7.39021 11.3043 5.27779 9.15557 5.27779 6.5C5.27779 3.84482 7.3898 1.69565 10 1.69565C12.6098 1.69565 14.7222 3.8444 14.7222 6.5C14.7222 9.15518 12.6102 11.3043 10 11.3043Z" fill="#777777"/>
</svg>
