<svg width="21" height="21" viewBox="0 0 21 21" fill="none" xmlns="http://www.w3.org/2000/svg">
<path d="M2.39537 -6.65428e-08L3.7793 -1.27036e-07C4.00764 -1.37018e-07 4.19447 0.1875 4.19447 0.416666L4.19447 14.4444L4.47126 14.4444C4.93142 14.4444 5.30162 14.816 5.30162 15.2778L5.30162 15.8333C5.30162 16.2951 4.93142 16.6667 4.47126 16.6667L4.19448 16.6667L4.19448 19.5833C4.19448 19.8125 4.00764 20 3.7793 20L2.39537 20C2.16702 20 1.98019 19.8125 1.98019 19.5833L1.98019 16.6667L1.7034 16.6667C1.24325 16.6667 0.873047 16.2951 0.873047 15.8333L0.873047 15.2778C0.873047 14.816 1.24325 14.4444 1.7034 14.4444L1.98019 14.4444L1.98019 0.416666C1.98019 0.1875 2.16702 -5.65614e-08 2.39537 -6.65428e-08ZM7.5159 0.416666L7.5159 3.33333L7.23912 3.33333C6.77896 3.33333 6.40876 3.70486 6.40876 4.16667L6.40876 4.72222C6.40876 5.18403 6.77896 5.55556 7.23912 5.55556L7.5159 5.55556L7.5159 19.5833C7.5159 19.8125 7.70273 20 7.93108 20L9.31501 20C9.54336 20 9.73019 19.8125 9.73019 19.5833L9.73019 5.55555L10.007 5.55555C10.4671 5.55555 10.8373 5.18403 10.8373 4.72222L10.8373 4.16667C10.8373 3.70486 10.4671 3.33333 10.007 3.33333L9.73019 3.33333L9.73019 0.416666C9.73019 0.1875 9.54336 -3.78991e-07 9.31501 -3.6901e-07L7.93108 -3.08517e-07C7.70273 -2.98535e-07 7.5159 0.1875 7.5159 0.416666ZM13.0516 0.416665L13.0516 10L12.7748 10C12.3147 10 11.9445 10.3715 11.9445 10.8333L11.9445 11.3889C11.9445 11.8507 12.3147 12.2222 12.7748 12.2222L13.0516 12.2222L13.0516 19.5833C13.0516 19.8125 13.2384 20 13.4668 20L14.8507 20C15.0791 20 15.2659 19.8125 15.2659 19.5833L15.2659 12.2222L15.5427 12.2222C16.0028 12.2222 16.373 11.8507 16.373 11.3889L16.373 10.8333C16.373 10.3715 16.0028 10 15.5427 10L15.2659 10L15.2659 0.416665C15.2659 0.187499 15.0791 -6.20965e-07 14.8507 -6.10984e-07L13.4668 -5.5049e-07C13.2384 -5.40509e-07 13.0516 0.187499 13.0516 0.416665Z" fill="white"/>
</svg>
