<svg width="21" height="21" viewBox="0 0 21 21" fill="none" xmlns="http://www.w3.org/2000/svg">
<path fill-rule="evenodd" clip-rule="evenodd" d="M17.3851 17.4554V12.3335C17.3851 12.2048 17.3296 12.0833 17.2359 12.0011L10.7073 6.4682C10.5511 6.33954 10.3289 6.33954 10.1761 6.4682L3.64751 12.0011C3.55034 12.0833 3.49467 12.2048 3.49467 12.3335V17.4554C3.49467 17.9307 3.86626 18.3132 4.32817 18.3132H16.5516C17.0135 18.3132 17.3851 17.9307 17.3851 17.4554ZM12.3001 13.8464C12.5667 13.6924 12.5667 13.3076 12.3001 13.1536L9.75004 11.6814C9.48344 11.5274 9.14995 11.7198 9.14995 12.0278V14.9723C9.14995 15.2802 9.48344 15.4726 9.75004 15.3187L12.3001 13.8464Z" fill="white"/>
<path d="M17.3851 7.69415L20.2881 10.1568C20.4654 10.3069 20.493 10.575 20.3472 10.7608L19.4617 11.8688C19.3157 12.0511 19.052 12.0761 18.8748 11.926L10.7073 5.00278C10.5511 4.87411 10.3289 4.87411 10.1761 5.00278L2.00859 11.926C1.83134 12.0761 1.56743 12.0511 1.42168 11.8688L0.536178 10.7608C0.390182 10.5786 0.414596 10.3069 0.591598 10.1568L9.3809 2.70456C9.99541 2.18271 10.8843 2.18271 11.4991 2.70456L14.607 5.33875V2.74387C14.607 2.50797 14.7945 2.31497 15.0237 2.31497H16.9683C17.1976 2.31497 17.3851 2.50797 17.3851 2.74387V7.69415Z" fill="white"/>
</svg>
