<svg width="20" height="20" viewBox="0 0 20 20" fill="none" xmlns="http://www.w3.org/2000/svg">
<path d="M4.67619 20H1.56415C0.701711 20 0 19.2987 0 18.4362V9.06375C0 8.20187 0.701711 7.5 1.56415 7.5H4.67619C5.53863 7.5 6.24097 8.20187 6.24097 9.06375V18.4362C6.24097 19.2987 5.53863 20 4.67619 20ZM1.56415 8.75C1.39154 8.75 1.25082 8.89062 1.25082 9.06375V18.4362C1.25082 18.6087 1.39154 18.75 1.56415 18.75H4.67619C4.84943 18.75 4.99015 18.6087 4.99015 18.4362V9.06375C4.99015 8.89062 4.84943 8.75 4.67619 8.75H1.56415Z" fill="#E00711"/>
<path d="M16.1392 20H8.55922C8.17334 20 7.78746 19.9087 7.44161 19.7362L5.33523 18.6838C5.02627 18.5294 4.90119 18.1537 5.05567 17.845C5.21014 17.5362 5.58539 17.4112 5.89497 17.5656L8.00135 18.6181C8.17396 18.7044 8.36659 18.75 8.55922 18.75H16.1392C16.3675 18.75 16.5801 18.6269 16.6939 18.4281L17.4 17.1931C18.2825 15.65 18.749 13.8938 18.749 12.1163V10.0013C18.749 9.31125 18.1874 8.75 17.497 8.75H12.7895C12.3748 8.75 11.9883 8.545 11.7557 8.20187C11.5237 7.85875 11.4768 7.42375 11.6306 7.03937C12.2041 5.60687 12.4949 4.0975 12.4949 2.55312V1.82875C12.4949 1.51 12.2354 1.25 11.9158 1.25H11.5268C11.2697 1.25 11.0408 1.4225 10.9702 1.66937L10.725 2.52625C10.1997 4.36188 9.32847 6.04812 8.13519 7.53937C7.51979 8.30875 6.60168 8.75 5.61541 8.75H3.73918C3.39395 8.75 3.11377 8.47 3.11377 8.125C3.11377 7.78 3.39395 7.5 3.73918 7.5H5.61541C6.21893 7.5 6.7818 7.22937 7.15892 6.75812C8.24776 5.39687 9.04329 3.8575 9.52235 2.1825L9.76751 1.32563C9.99078 0.545625 10.7144 0 11.5268 0H11.9158C12.9252 0 13.7457 0.82 13.7457 1.82875V2.55312C13.7457 4.2575 13.4243 5.92312 12.792 7.50375L17.497 7.5C18.8772 7.5 19.9999 8.62188 19.9999 10.0013V12.1163C19.9999 14.1112 19.4764 16.0819 18.4857 17.8138L17.7796 19.0487C17.4438 19.6356 16.8153 20 16.1392 20Z" fill="#E00711"/>
<path d="M3.11328 17.5C3.45846 17.5 3.73828 17.2202 3.73828 16.875C3.73828 16.5298 3.45846 16.25 3.11328 16.25C2.7681 16.25 2.48828 16.5298 2.48828 16.875C2.48828 17.2202 2.7681 17.5 3.11328 17.5Z" fill="#E00711"/>
</svg>
