<svg xmlns="http://www.w3.org/2000/svg" width="18" height="18" viewBox="0 0 18 18" fill="none">
    <path d="M17.1429 17.1429H17.0816C11.3878 17.1429 5.7551 17.1429 0.0612244 17.1429H0C0 17.1429 -5.93005e-08 17.0816 0.0612244 17.0816C1.04082 15 2.02041 12.9796 3 10.898C3 10.8367 3.06122 10.8367 3.12245 10.8367C4.40816 10.8367 5.63265 10.8367 6.91837 10.8367C6.91837 10.8367 6.97959 10.8367 7.04082 10.8367C7.04082 10.7755 7.04082 10.7755 6.97959 10.7755C6.2449 9.2449 5.5102 7.77551 4.77551 6.2449C4.71429 6.06122 4.59184 5.87755 4.53061 5.69388C4.28571 4.89796 4.22449 4.04082 4.40816 3.2449C4.77551 1.59184 6.18367 0.306122 7.89796 0.0612244C8.02041 0.0612244 8.20408 0 8.32653 0C8.5102 0 8.69388 0 8.81633 0H8.87755C9.79592 0.0612245 10.5918 0.428571 11.3265 0.979592C12.4898 1.95918 12.9796 3.2449 12.7959 4.77551C12.7347 5.14286 12.6735 5.5102 12.4898 5.81633C11.6939 7.40816 10.898 9.06122 10.1633 10.6531C10.1633 10.6531 10.1633 10.7143 10.102 10.7755C10.1633 10.7755 10.1633 10.7755 10.2245 10.7755C11.5102 10.7755 12.7347 10.7755 14.0204 10.7755C14.0816 10.7755 14.1429 10.7755 14.1429 10.8367C15.1224 12.9184 16.102 14.9388 17.0816 17.0204C17.0816 17.0816 17.1429 17.0816 17.1429 17.1429ZM11.0816 4.22449C11.0816 2.81633 9.97959 1.71429 8.57143 1.71429C7.22449 1.71429 6.06122 2.81633 6.06122 4.22449C6.06122 5.63265 7.16327 6.73469 8.57143 6.73469C9.91837 6.73469 11.0816 5.63265 11.0816 4.22449ZM8.57143 14.0204C9.18367 14.6939 9.91837 15.1224 10.8367 15.3673C11.8776 15.6122 12.9184 15.6122 14.0204 15.4286C14.3265 15.3673 14.6327 15.3061 14.8776 15.1224C15.0612 15 15.1837 14.8776 15.2449 14.6939C15.2449 14.6327 15.2449 14.6327 15.2449 14.5714C15.0612 14.1429 14.8163 13.6531 14.6327 13.2245C14.6327 13.1633 14.5714 13.1633 14.5102 13.1633C14.0204 13.1633 13.5918 13.1633 13.102 13.102C12.7347 13.102 12.3061 12.9796 11.9388 12.8571C11.3878 12.6122 11.0204 12.2449 10.9592 11.6327C10.9592 11.5714 10.9592 11.5714 10.9592 11.5102C10.5918 11.5102 10.2857 11.5102 9.91837 11.5102C9.85714 11.5102 9.85714 11.5102 9.85714 11.5714C9.36735 12.3061 9 13.1633 8.57143 14.0204ZM16.1633 16.5306C15.9184 15.9796 15.6735 15.4286 15.3673 14.9388C15.1837 15.2449 14.8776 15.4286 14.5102 15.551C14.3265 15.6122 14.0816 15.6735 13.898 15.7347C13.0408 15.9184 12.1224 15.9184 11.2653 15.7959C10.6531 15.7347 10.0408 15.551 9.4898 15.2449C8.93878 14.9388 8.5102 14.5714 8.14286 14.0816C7.83673 13.7755 7.59184 13.4082 7.28571 13.102C7.04082 12.8571 6.79592 12.6122 6.4898 12.4898C6.36735 12.4286 6.2449 12.4286 6.06122 12.3673C6.06122 13.7755 6.06122 15.1224 6.06122 16.5306C9.4898 16.5306 12.8571 16.5306 16.1633 16.5306ZM5.81633 12.3673C5.69388 12.3673 5.63265 12.3673 5.5102 12.3673C5.02041 12.4286 4.53061 12.4898 4.16327 12.7347C3.91837 12.8571 3.67347 13.0408 3.4898 13.2245C3.18367 13.4694 2.81633 13.6531 2.38776 13.6531L2.32653 13.7143C1.89796 14.6327 1.46939 15.551 1.04082 16.4694V16.5306C2.69388 16.5306 4.28571 16.5306 5.93878 16.5306C5.81633 15.1224 5.81633 13.7755 5.81633 12.3673ZM11.2041 11.3878C11.2041 11.449 11.2041 11.449 11.2041 11.3878C11.2041 11.449 11.2041 11.449 11.2041 11.449C11.2653 11.8776 11.5102 12.1837 11.8776 12.3673C12.1224 12.4898 12.4286 12.6122 12.7347 12.6122C13.2857 12.6735 13.7755 12.6735 14.3265 12.6735C14.3265 12.6735 14.3265 12.6735 14.3878 12.6735C14.3878 12.6735 14.3878 12.6122 14.3265 12.6122C14.1429 12.1837 13.9592 11.8163 13.7755 11.3878C13.7755 11.3265 13.7143 11.3265 13.6531 11.3265C12.8571 11.3265 12.0612 11.3265 11.3265 11.3265C11.2653 11.3878 11.2653 11.3878 11.2041 11.3878ZM2.5102 13.3469C2.63265 13.3469 2.81633 13.2857 2.93878 13.2245C3.18367 13.102 3.36735 12.9796 3.55102 12.7959C4.16327 12.3061 4.77551 12.0612 5.5102 12.0612C5.63265 12.0612 5.7551 12.0612 5.81633 12.0612C5.81633 11.8163 5.81633 11.6327 5.81633 11.449H5.7551C4.95918 11.449 4.22449 11.449 3.42857 11.449C3.36735 11.449 3.36735 11.449 3.36735 11.5102C3.06122 12.1224 2.81633 12.7347 2.5102 13.3469C2.5102 13.3469 2.5102 13.2857 2.5102 13.3469ZM6.12245 11.3878C6.12245 11.5714 6.12245 11.8163 6.12245 12C6.12245 12.0612 6.12245 12.0612 6.18367 12.0612C6.36735 12.0612 6.55102 12.1224 6.73469 12.2449C7.10204 12.4286 7.34694 12.6735 7.59184 12.9184C7.89796 13.2245 8.14286 13.5918 8.44898 13.898C8.44898 13.898 8.44898 13.9592 8.5102 13.9592C8.08163 13.102 7.71429 12.3061 7.28571 11.449C7.28571 11.3878 7.22449 11.3878 7.22449 11.3878C6.97959 11.3878 6.73469 11.3878 6.4898 11.3878C6.42857 11.3878 6.30612 11.3878 6.12245 11.3878Z" fill="#E00711"/>
</svg>