<svg width="20" height="20" viewBox="0 0 20 20" fill="none" xmlns="http://www.w3.org/2000/svg">
<path d="M10 0C13.4518 0 16.25 2.7982 16.25 6.25C16.25 9.7018 13.4518 12.5 10 12.5C6.5482 12.5 3.75 9.7018 3.75 6.25C3.75 2.7982 6.5482 0 10 0ZM17.1595 13.0399L14.3738 12.3435C11.4471 14.4486 7.89969 13.9788 5.62617 12.3435L2.84051 13.0399C1.17113 13.4572 0 14.9571 0 16.6779V18.125C0 19.1605 0.839453 20 1.875 20H18.125C19.1605 20 20 19.1605 20 18.125V16.6779C20 14.9571 18.8289 13.4572 17.1595 13.0399Z" fill="white"/>
</svg>
