<svg width="20" height="21" viewBox="0 0 20 21" fill="none" xmlns="http://www.w3.org/2000/svg">
<path fill-rule="evenodd" clip-rule="evenodd" d="M10 20.5C15.5228 20.5 20 16.0228 20 10.5C20 4.97715 15.5228 0.5 10 0.5C4.47716 0.5 0 4.97715 0 10.5C0 16.0228 4.47716 20.5 10 20.5ZM7.7907 8.23256C9.17141 8.23256 10.2907 7.11327 10.2907 5.73256C10.2907 4.35185 9.17141 3.23256 7.7907 3.23256C6.40998 3.23256 5.2907 4.35185 5.2907 5.73256C5.2907 7.11327 6.40998 8.23256 7.7907 8.23256ZM17.2674 8.2907C17.2674 9.67141 16.1482 10.7907 14.7674 10.7907C13.3867 10.7907 12.2674 9.67141 12.2674 8.2907C12.2674 6.90999 13.3867 5.7907 14.7674 5.7907C16.1482 5.7907 17.2674 6.90999 17.2674 8.2907ZM12.2093 17.7674C13.59 17.7674 14.7093 16.6482 14.7093 15.2674C14.7093 13.8867 13.59 12.7674 12.2093 12.7674C10.8286 12.7674 9.7093 13.8867 9.7093 15.2674C9.7093 16.6482 10.8286 17.7674 12.2093 17.7674ZM7.73256 12.7093C7.73256 14.09 6.61327 15.2093 5.23256 15.2093C3.85184 15.2093 2.73256 14.09 2.73256 12.7093C2.73256 11.3286 3.85184 10.2093 5.23256 10.2093C6.61327 10.2093 7.73256 11.3286 7.73256 12.7093ZM10 11.7791C10.7064 11.7791 11.2791 11.2064 11.2791 10.5C11.2791 9.79359 10.7064 9.22093 10 9.22093C9.2936 9.22093 8.72093 9.79359 8.72093 10.5C8.72093 11.2064 9.2936 11.7791 10 11.7791Z" fill="url(#paint0_linear)"/>
<defs>
<linearGradient id="paint0_linear" x1="10" y1="0.5" x2="10" y2="20.5" gradientUnits="userSpaceOnUse">
<stop stop-color="#FEA621"/>
<stop offset="1" stop-color="#FF6F00"/>
</linearGradient>
</defs>
</svg>
